<?xml version="1.0" encoding="utf-8"?>
<!-- Generator: Adobe Illustrator 16.0.0, SVG Export Plug-In . SVG Version: 6.00 Build 0)  -->
<!DOCTYPE svg PUBLIC "-//W3C//DTD SVG 1.1//EN" "http://www.w3.org/Graphics/SVG/1.1/DTD/svg11.dtd">
<svg version="1.1" id="Capa_1" xmlns="http://www.w3.org/2000/svg" xmlns:xlink="http://www.w3.org/1999/xlink" x="0px" y="0px"
	 width="960px" height="560px" viewBox="0 0 960 560" enable-background="new 0 0 960 560" xml:space="preserve">
<g id="Capa_1_1_">
	
		<text transform="matrix(1.1527 0 0 1 355.835 335.8242)" fill="#006837" font-family="'HelveticaLTStd-Light'" font-size="284.3481">f</text>
	<g enable-background="new    ">
		<path fill="none" stroke="#FCEE21" stroke-width="3" stroke-miterlimit="10" d="M362.391,202.75v-14.217h25.238v-23.316
			c0-23.316,9.833-38.103,36.055-38.103c5.9,0,11.145,0.284,16.389,1.137v15.639c-3.933-0.853-8.194-1.422-11.8-1.422
			c-20.322,0-20.978,14.502-20.978,27.866v18.198h32.777v14.217h-32.777v133.075h-19.667V202.75H362.391z"/>
	</g>
	<g enable-background="new    ">
		<path fill="#006837" stroke="#FCEE21" stroke-width="2" stroke-miterlimit="10" d="M465.707,173.463
			c0-20.868,13.11-37.729,39.331-37.729c26.548,0,39.331,16.722,39.331,37.729c0,22.665-15.568,37.728-39.331,37.728
			C483.406,210.915,465.707,198.477,465.707,173.463z M505.038,143.197c-20.649,0-28.843,14.787-28.843,30.266
			c0,17.828,9.996,30.266,28.843,30.266c20.648,0,28.843-14.926,28.843-30.266C533.717,156.603,525.851,143.197,505.038,143.197z"/>
		<path fill="#006837" stroke="#FCEE21" stroke-width="2" stroke-miterlimit="10" d="M572.722,209.256h-9.833v-71.587h9.833v13.405
			h0.327c5.408-11.471,13.438-15.34,27.696-15.34v8.983c-22.124-0.415-28.023,13.405-28.023,29.437V209.256z"/>
		<path fill="#006837" stroke="#FCEE21" stroke-width="2" stroke-miterlimit="10" d="M608.448,173.463
			c0-20.868,13.11-37.729,39.331-37.729c26.549,0,39.331,16.722,39.331,37.729c0,22.665-15.568,37.728-39.331,37.728
			C626.147,210.915,608.448,198.477,608.448,173.463z M647.779,143.197c-20.648,0-28.843,14.787-28.843,30.266
			c0,17.828,9.996,30.266,28.843,30.266c20.648,0,28.843-14.926,28.843-30.266C676.458,156.603,668.592,143.197,647.779,143.197z"/>
	</g>
	<g enable-background="new    ">
		<path fill="#006837" stroke="#FCEE21" stroke-width="2" stroke-miterlimit="10" d="M472.917,232.603h11.144v59.287
			c0,24.6,10.488,34.826,34.578,34.826c25.401,0,34.579-11.332,34.579-34.826v-59.287h11.144v62.051
			c0,25.844-15.241,40.078-45.723,40.078c-30.809,0-45.722-14.649-45.722-40.078V232.603z"/>
		<path fill="#006837" stroke="#FCEE21" stroke-width="2" stroke-miterlimit="10" d="M591.073,332.105v-99.503h40.314
			c13.11,0,25.401,0.691,36.381,7.462c15.568,9.536,19.666,28.884,19.666,42.151c0,13.129-3.442,27.778-14.258,37.729
			c-10.816,10.227-26.221,12.161-41.789,12.161H591.073z M602.217,324.09h26.713c9.996,0,18.682-0.553,27.695-4.561
			c15.732-6.771,19.665-23.771,19.665-37.313c0-14.511-3.769-30.404-20.32-37.867c-7.047-3.179-17.208-3.731-27.04-3.731h-26.713
			V324.09z"/>
		<path fill="#006837" stroke="#FCEE21" stroke-width="2" stroke-miterlimit="10" d="M709.393,332.105v-99.503h78.498v8.015h-67.354
			v35.932h60.8v8.016h-60.8v39.524h68.993v8.016H709.393z"/>
		<path fill="#006837" stroke="#FCEE21" stroke-width="2" stroke-miterlimit="10" d="M893.265,261.486
			c-4.589-16.999-17.044-23.494-37.2-23.494c-28.516,0-40.807,20.591-40.807,44.085c0,22.25,9.669,44.639,41.789,44.639
			c20.321,0,32.94-11.608,37.365-27.363h11.635c-5.244,19.209-19.501,35.379-51.13,35.379c-36.382,0-50.803-24.185-50.803-52.378
			c0-38.004,23.599-52.377,54.899-52.377c24.254,0,41.953,10.917,45.723,31.509H893.265z"/>
	</g>
	<rect x="568.397" y="263.792" fill="#FFFFFF" width="54.403" height="11.275"/>
	<rect x="568.397" y="291.352" fill="#FFFFFF" width="54.403" height="11.273"/>
	<rect x="376.478" y="301.372" fill="#FFFFFF" width="55.914" height="11.274"/>
</g>
<g id="Capa_2" display="none">
</g>
<ellipse fill="#006837" stroke="#FFFF00" stroke-width="5" stroke-miterlimit="10" cx="196.118" cy="249.637" rx="157.128" ry="156"/>
<path fill="#FFFF0D" d="M255.218,210.41c3.827,1.484,4.827,4.621,5.443,9.039c2.971,21.366,5.775,24.152,24.477,23.224
	c9.93-0.494,16.551,0.056,12.66,14.963c-1.931,7.378-0.865,15.864-0.603,23.833c0.358,10.757-5.038,15.507-14.185,11.09
	c-5.879-2.838-11.137-5.054-17.678-2.202c-5.29,2.31-9.668,0.535-13.68-5.325c-6.184-9.041-12.02-7.131-15.198,3.608
	c-2.612,8.835-7.8,13.386-15.797,16.235c-14.313,5.098-24.127,16.385-28.815,32.69c-1.423,4.957-2.63,10.846-8.299,9.058
	c-5.837-1.845-4.073-8.37-2.897-12.843c5.29-20.099,17.946-32.62,34.725-39.969c5.805-2.539,9.059-5.843,11.507-12.64
	c6.337-17.597,19.324-18.97,31.755-5.173c6.988,7.76,16.719,2.604,24.955,3.162c5.54,0.377,2.7-9.07,3.233-14.115
	c0.87-8.243-3.897-9.206-9.956-10.085c-17.639-2.551-27.887-15.559-27.953-33.62c-0.02-4.359,0.766-7.792,4.049-10.243
	c0.004-0.006,1.012-0.841,1.012-0.841L255.218,210.41z"/>
<path fill="#BF1600" stroke="#FF1D25" stroke-width="2" stroke-miterlimit="10" d="M142.683,294.296
	c-33.749-0.078-34.775-0.672-23.907-16.861c22.498-33.516,18.426-68.334,17.167-103.025c-0.127-3.492-1.691-6.983-10.313-5.854
	c-6.281,0.823-6.207,3.83-5.357,6.66c11.081,36.878,5.917,72.64-23.98,106.729c-7.106,8.104-4.259,14.786,10.243,19.211
	c15.966,4.87,28.062,1.874,36.782-6.417c17.939-1.222,24.563,2.695,24.09,12.979c-0.379,8.283-7.234,17.56,6.317,27.612
	c1.063-7.178,1.662-11.889,2.507-16.596c0.97-5.435,2.585-10.842,3.158-16.288c0.557-5.292-2.65-9.743-12.39-11.941
	C157.116,288.271,147.561,286.785,142.683,294.296z"/>
<path fill="#15D9FF" d="M244.39,209.395c1.912,3.293,3.924,6.513,5.939,9.733c1.281-1.071,2.689-1.939,4.21-2.521
	c3.616-14.271-7.103-20.735-14.132-28.832c-6.909-7.954-13.971-7.164-23.124-1.547c-19.901,12.203-36.846,1.002-39.506-25.111
	c-0.988-9.68-3.452-12.675-11.397-6.771c-6.472,4.807-13.728,7.35-21.498,8.293c-3.723,0.451-9.624-1.203-9.13,5.596
	c0.445,6.142,5.959,4.834,9.874,4.668c3.044-0.127,6.328-0.253,9.048-1.547c8.352-3.971,11.995-1.182,15.909,8.126
	c7.995,19.016,27.801,28.039,45.313,18.836C230.79,190.491,237.497,197.504,244.39,209.395z"/>
</svg>
