<?xml version="1.0" encoding="utf-8"?>
<!-- Generator: Adobe Illustrator 16.0.0, SVG Export Plug-In . SVG Version: 6.00 Build 0)  -->
<!DOCTYPE svg PUBLIC "-//W3C//DTD SVG 1.1//EN" "http://www.w3.org/Graphics/SVG/1.1/DTD/svg11.dtd">
<svg version="1.1" id="Capa_1" xmlns="http://www.w3.org/2000/svg" xmlns:xlink="http://www.w3.org/1999/xlink" x="0px" y="0px"
	 width="960px" height="560px" viewBox="0 0 960 560" enable-background="new 0 0 960 560" xml:space="preserve">
<g id="Capa_1_1_">
	<g enable-background="new    ">
		<path fill="#006837" d="M357.213,365.638v-16.941h27.632v-27.783c0-27.783,10.766-45.402,39.475-45.402
			c6.459,0,12.2,0.339,17.942,1.355v18.636c-4.307-1.017-8.972-1.694-12.919-1.694c-22.249,0-22.967,17.279-22.967,33.204v21.685
			h35.886v16.941h-35.886v158.568h-21.531V365.638H357.213z"/>
	</g>
	<g enable-background="new    ">
		<path fill="none" stroke="#006837" stroke-width="2" stroke-miterlimit="10" d="M357.212,365.639v-16.941h27.632v-27.783
			c0-27.782,10.765-45.401,39.473-45.401c6.459,0,12.2,0.339,17.942,1.355v18.636c-4.307-1.018-8.972-1.694-12.918-1.694
			c-22.249,0-22.967,17.279-22.967,33.204v21.685h35.885v16.941h-35.885v158.567h-21.529V365.639H357.212z"/>
	</g>
	<g enable-background="new    ">
		<path fill="#006837" d="M470.324,330.734c0-24.868,14.354-44.96,43.06-44.96c29.063,0,43.059,19.928,43.059,44.96
			c0,27.009-17.044,44.96-43.059,44.96C489.7,375.365,470.324,360.543,470.324,330.734z M513.384,294.668
			c-22.606,0-31.577,17.62-31.577,36.065c0,21.245,10.943,36.066,31.577,36.066c22.604,0,31.575-17.786,31.575-36.066
			C544.78,310.643,536.169,294.668,513.384,294.668z"/>
		<path fill="#006837" d="M587.481,373.389h-10.765V288.08h10.765v15.975h0.358c5.921-13.669,14.712-18.28,30.32-18.28v10.705
			c-24.221-0.494-30.68,15.975-30.68,35.078L587.481,373.389L587.481,373.389z"/>
		<path fill="#006837" d="M626.595,330.734c0-24.868,14.354-44.96,43.06-44.96c29.064,0,43.06,19.928,43.06,44.96
			c0,27.009-17.044,44.96-43.06,44.96C645.972,375.365,626.595,360.543,626.595,330.734z M669.654,294.668
			c-22.605,0-31.577,17.62-31.577,36.065c0,21.245,10.944,36.066,31.577,36.066c22.605,0,31.576-17.786,31.576-36.066
			C701.052,310.643,692.439,294.668,669.654,294.668z"/>
	</g>
	<g enable-background="new    ">
		<path fill="#006837" d="M478.219,401.199h12.199v70.651c0,29.313,11.482,41.501,37.855,41.501
			c27.811,0,37.856-13.505,37.856-41.501v-70.651h12.199v73.944c0,30.797-16.686,47.76-50.057,47.76
			c-33.729,0-50.056-17.457-50.056-47.76v-73.944H478.219z"/>
		<path fill="#006837" d="M607.573,519.775V401.199h44.136c14.354,0,27.81,0.823,39.83,8.894
			c17.045,11.364,21.529,34.42,21.529,50.229c0,15.646-3.768,33.104-15.609,44.96c-11.841,12.188-28.705,14.492-45.75,14.492
			H607.573z M619.773,510.224h29.244c10.944,0,20.453-0.659,30.321-5.436c17.224-8.069,21.528-28.325,21.528-44.466
			c0-17.293-4.127-36.23-22.247-45.125c-7.715-3.788-18.839-4.445-29.604-4.445h-29.244L619.773,510.224L619.773,510.224z"/>
		<path fill="#006837" d="M737.109,519.775V401.199h85.939v9.553H749.31v42.817h66.563v9.553H749.31v47.102h75.533v9.552
			L737.109,519.775L737.109,519.775z"/>
		<path fill="#006837" d="M938.41,435.619c-5.022-20.257-18.658-27.997-40.727-27.997c-31.218,0-44.674,24.538-44.674,52.535
			c0,26.516,10.586,53.194,45.751,53.194c22.247,0,36.062-13.834,40.905-32.608h12.738c-5.741,22.893-21.351,42.16-55.978,42.16
			c-39.829,0-55.617-28.819-55.617-62.417c0-45.289,25.835-62.416,60.103-62.416c26.555,0,45.931,13.01,50.058,37.549H938.41z"/>
	</g>
	<rect x="582.75" y="438.373" fill="#FFFFFF" width="59.56" height="13.437"/>
	<rect x="582.75" y="471.213" fill="#FFFFFF" width="59.56" height="13.433"/>
	<rect x="372.636" y="483.152" fill="#FFFFFF" width="61.214" height="13.438"/>
</g>
<g id="Capa_2" display="none">
</g>
<ellipse fill="#006837" cx="178.013" cy="368.523" rx="172.021" ry="183.886"/>
<path fill="#FFFF0D" d="M242.715,322.283c4.19,1.749,5.285,5.447,5.959,10.655c3.252,25.187,6.323,28.47,26.798,27.375
	c10.87-0.582,18.119,0.065,13.859,17.637c-2.114,8.697-0.947,18.701-0.66,28.095c0.393,12.68-5.516,18.278-15.528,13.071
	c-6.437-3.345-12.192-5.957-19.354-2.596c-5.792,2.723-10.584,0.631-14.977-6.277c-6.771-10.656-13.159-8.404-16.64,4.254
	c-2.858,10.414-8.539,15.779-17.294,19.138c-15.67,6.01-26.414,19.313-31.546,38.532c-1.558,5.846-2.879,12.786-9.086,10.68
	c-6.39-2.174-4.459-9.867-3.172-15.141c5.792-23.689,19.647-38.45,38.017-47.112c6.355-2.992,9.918-6.888,12.599-14.898
	c6.938-20.742,21.156-22.361,34.765-6.098c7.65,9.146,18.304,3.069,27.321,3.729c6.064,0.443,2.956-10.692,3.54-16.64
	c0.953-9.717-4.268-10.854-10.9-11.888c-19.311-3.007-30.529-18.341-30.603-39.631c-0.021-5.14,0.838-9.185,4.433-12.074
	c0.004-0.007,1.107-0.99,1.107-0.99L242.715,322.283z"/>
<path fill="#BF1600" stroke="#FF1D25" stroke-width="2" stroke-miterlimit="10" d="M119.512,421.164
	c-36.948-0.092-38.071-0.792-26.174-19.876c24.631-39.506,20.173-80.549,18.794-121.44c-0.139-4.117-1.851-8.231-11.291-6.898
	c-6.876,0.97-6.795,4.514-5.863,7.851c12.131,43.47,6.478,85.625-26.254,125.807c-7.779,9.553-4.662,17.43,11.215,22.646
	c17.479,5.74,30.722,2.209,40.268-7.563c19.641-1.44,26.893,3.177,26.374,15.299c-0.415,9.765-7.92,20.698,6.916,32.548
	c1.164-8.461,1.819-14.015,2.744-19.562c1.063-6.406,2.83-12.78,3.458-19.2c0.61-6.238-2.901-11.485-13.563-14.076
	C135.313,414.063,124.853,412.311,119.512,421.164z"/>
<path fill="#15D9FF" d="M230.861,321.086c2.093,3.883,4.295,7.678,6.502,11.475c1.402-1.263,2.944-2.286,4.609-2.971
	c3.959-16.822-7.776-24.443-15.473-33.986c-7.563-9.376-15.295-8.444-25.315-1.823c-21.788,14.384-40.339,1.182-43.25-29.6
	c-1.082-11.411-3.779-14.941-12.479-7.981c-7.085,5.665-15.029,8.662-23.536,9.773c-4.075,0.532-10.536-1.417-9.996,6.597
	c0.487,7.239,6.523,5.698,10.811,5.502c3.333-0.148,6.928-0.298,9.906-1.822c9.144-4.682,13.132-1.395,17.417,9.579
	c8.753,22.414,30.436,33.051,49.607,22.201C215.971,298.805,223.314,307.07,230.861,321.086z"/>
</svg>
