<?xml version="1.0" encoding="utf-8"?>
<!-- Generator: Adobe Illustrator 16.0.0, SVG Export Plug-In . SVG Version: 6.00 Build 0)  -->
<!DOCTYPE svg PUBLIC "-//W3C//DTD SVG 1.1//EN" "http://www.w3.org/Graphics/SVG/1.1/DTD/svg11.dtd">
<svg version="1.1" id="Capa_1" xmlns="http://www.w3.org/2000/svg" xmlns:xlink="http://www.w3.org/1999/xlink" x="0px" y="0px"
	 width="325px" height="325px" viewBox="0 0 325 325" enable-background="new 0 0 325 325" xml:space="preserve">
<ellipse fill="#006837" cx="162.872" cy="163" rx="157.128" ry="156"/>
<path fill-rule="evenodd" clip-rule="evenodd" fill="#FFFF0D" d="M221.972,123.774c3.828,1.484,4.828,4.621,5.444,9.039
	c2.97,21.366,5.775,24.152,24.476,23.223c9.93-0.494,16.552,0.056,12.661,14.963c-1.931,7.378-0.865,15.865-0.603,23.833
	c0.358,10.757-5.038,15.507-14.185,11.09c-5.878-2.838-11.136-5.054-17.677-2.202c-5.29,2.31-9.668,0.535-13.68-5.325
	c-6.183-9.041-12.019-7.131-15.198,3.608c-2.613,8.835-7.8,13.386-15.797,16.236c-14.313,5.097-24.127,16.384-28.815,32.69
	c-1.423,4.957-2.63,10.846-8.299,9.058c-5.837-1.845-4.073-8.371-2.897-12.843c5.29-20.099,17.946-32.62,34.725-39.969
	c5.805-2.539,9.058-5.843,11.507-12.64c6.337-17.596,19.324-18.969,31.754-5.172c6.989,7.759,16.72,2.604,24.956,3.162
	c5.54,0.377,2.7-9.071,3.233-14.116c0.87-8.243-3.897-9.206-9.956-10.085c-17.638-2.55-27.887-15.558-27.953-33.62
	c-0.02-4.359,0.765-7.792,4.049-10.243c0.004-0.006,1.012-0.841,1.012-0.841L221.972,123.774z"/>
<path fill-rule="evenodd" clip-rule="evenodd" fill="#BF1600" stroke="#FF1D25" stroke-width="2" stroke-miterlimit="10" d="
	M109.437,207.659c-33.749-0.078-34.775-0.671-23.907-16.861c22.498-33.516,18.426-68.334,17.167-103.025
	c-0.127-3.492-1.691-6.984-10.313-5.854c-6.281,0.823-6.207,3.83-5.357,6.66c11.081,36.878,5.917,72.64-23.98,106.729
	c-7.106,8.103-4.259,14.786,10.243,19.211c15.966,4.87,28.062,1.874,36.782-6.417c17.939-1.222,24.563,2.695,24.09,12.978
	c-0.379,8.284-7.234,17.56,6.317,27.613c1.063-7.178,1.662-11.889,2.507-16.596c0.97-5.435,2.585-10.842,3.158-16.288
	c0.557-5.292-2.65-9.743-12.39-11.942C123.87,201.634,114.315,200.149,109.437,207.659z"/>
<path fill="#15D9FF" d="M211.145,122.758c1.912,3.293,3.923,6.513,5.939,9.733c1.281-1.071,2.689-1.939,4.21-2.52
	c3.616-14.271-7.103-20.735-14.132-28.832c-6.909-7.954-13.971-7.164-23.124-1.547c-19.901,12.203-36.846,1.002-39.506-25.111
	c-0.988-9.68-3.452-12.675-11.397-6.772c-6.472,4.807-13.728,7.35-21.498,8.293c-3.723,0.451-9.624-1.203-9.13,5.596
	c0.445,6.142,5.959,4.834,9.874,4.668c3.044-0.127,6.328-0.253,9.048-1.547c8.352-3.971,11.995-1.182,15.909,8.126
	c7.995,19.016,27.801,28.039,45.312,18.836C197.544,103.855,204.251,110.867,211.145,122.758z"/>
</svg>
